<svg xmlns="http://www.w3.org/2000/svg" viewBox="0 0 150 150"><defs><style>.cls-1{fill:#fff;}.cls-2{fill:#cecaca;}.cls-3{fill:none;stroke:#cecaca;stroke-linecap:round;stroke-miterlimit:10;stroke-width:5px;}</style></defs><title>Asset 1</title><g id="Layer_2" data-name="Layer 2"><g id="Layer_1-2" data-name="Layer 1"><path class="cls-1" d="M75,148.5A73.5,73.5,0,1,1,148.5,75,73.58,73.58,0,0,1,75,148.5Z"/><path class="cls-2" d="M75,3A72,72,0,1,1,3,75,72.08,72.08,0,0,1,75,3m0-3a75,75,0,1,0,75,75A75,75,0,0,0,75,0Z"/><line class="cls-3" x1="75.5" y1="47" x2="75.5" y2="106.5"/><line class="cls-3" x1="75.5" y1="47" x2="102.5" y2="76"/><line class="cls-3" x1="75.5" y1="47" x2="48.5" y2="76"/></g></g></svg>